# Blender v2.80 (sub 75) OBJ File: 'Player_Placeholder.blend'
# www.blender.org
mtllib Player_Placeholder.mtl
o Cube
v 0.577278 0.265251 -1.000000
v 0.577278 -1.000000 -1.000000
v 0.577278 0.265251 1.000000
v 0.577278 -1.000000 1.000000
v -0.577278 0.265251 -1.000000
v -0.577278 -1.000000 -1.000000
v -0.577278 0.265251 1.000000
v -0.577278 -1.000000 1.000000
v 0.577278 -1.176412 0.000000
v -0.577278 -1.176412 0.000000
v -0.577278 -2.247783 0.189003
v 0.577278 -2.247783 0.189003
v 0.577278 -2.247783 1.189003
v -0.577278 -2.247783 1.189003
v -0.577278 -2.247783 -1.189003
v 0.577278 -2.247783 -1.189003
v 0.577278 -2.247783 -0.189003
v -0.577278 -2.247783 -0.189003
v 0.368839 1.113328 0.352274
v -0.368839 1.113328 0.352274
v 0.368839 1.113328 -0.352274
v -0.368839 1.113328 -0.352274
v 0.577278 -0.973172 -2.147857
v -0.577278 -0.973172 -2.147857
v -0.577278 -0.125094 -2.147857
v 0.577278 -0.125094 -2.147857
v -0.577278 -0.973172 2.147857
v 0.577278 -0.973172 2.147857
v 0.577278 -0.125094 2.147857
v -0.577278 -0.125094 2.147857
v 0.577278 1.113328 1.000000
v -0.577278 1.113328 1.000000
v 0.577278 1.113328 -1.000000
v -0.577278 1.113328 -1.000000
v 0.368839 1.322967 0.352274
v -0.368839 1.322967 0.352274
v 0.368839 1.322967 -0.352274
v -0.368839 1.322967 -0.352274
v -0.611463 1.322967 0.611463
v 0.611463 1.322967 0.611463
v -0.611463 1.322967 -0.611463
v 0.611463 1.322967 -0.611463
v -0.611463 2.440590 0.611463
v 0.611463 2.440590 0.611463
v -0.611463 2.440590 -0.611463
v 0.611463 2.440590 -0.611463
vt 0.107121 0.144157
vt 0.107121 0.395334
vt 0.000000 0.395334
vt 0.000000 0.144157
vt 0.145832 0.698391
vt 0.145832 0.539491
vt 0.291664 0.539491
vt 0.291664 0.698391
vt 0.266935 0.395334
vt 0.266935 0.144157
vt 0.289217 0.269746
vt 0.691477 0.395334
vt 0.531663 0.395334
vt 0.531663 0.144157
vt 0.691477 0.144157
vt 0.713759 0.269746
vt 0.000000 0.698391
vt 0.000000 0.539491
vt 0.145832 0.539491
vt 0.145832 0.698391
vt 0.252620 0.855001
vt 0.252620 1.000000
vt 0.126310 1.000000
vt 0.126310 0.855001
vt 0.729161 0.846662
vt 0.864580 0.846662
vt 0.864580 0.991661
vt 0.729161 0.991661
vt 0.849084 0.120421
vt 0.849084 0.246009
vt 0.291664 0.855001
vt 0.145832 0.855001
vt 0.424542 0.293482
vt 0.424542 0.419070
vt 0.000000 1.000000
vt 0.000000 0.855001
vt 0.126310 0.855001
vt 0.126310 1.000000
vt 0.145832 0.855001
vt 0.000000 0.855001
vt 0.849084 0.293482
vt 0.849084 0.419071
vt 1.000000 0.991661
vt 0.864580 0.991661
vt 0.864580 0.846662
vt 1.000000 0.846662
vt 0.424542 0.120421
vt 0.424542 0.246009
vt 0.936588 0.632135
vt 0.936588 0.720618
vt 0.910108 0.720618
vt 0.910108 0.632135
vt 0.424542 0.395334
vt 0.424542 0.144157
vt 0.291664 0.539491
vt 0.437497 0.539491
vt 0.437497 0.645999
vt 0.291664 0.645999
vt 0.437497 0.800951
vt 0.437497 0.957059
vt 0.291664 0.957059
vt 0.291664 0.800951
vt 0.156425 0.000000
vt 0.263546 0.000000
vt 0.291664 0.800951
vt 0.437497 0.800951
vt 0.688088 0.539491
vt 0.580967 0.539491
vt 0.583329 0.800951
vt 0.437497 0.800951
vt 0.437497 0.694443
vt 0.583329 0.694443
vt 0.729161 0.790668
vt 0.729161 0.946776
vt 0.583329 0.946776
vt 0.583329 0.790668
vt 0.580967 0.000000
vt 0.688088 0.000000
vt 0.583329 0.539491
vt 0.437497 0.539491
vt 0.263546 0.539491
vt 0.156425 0.539491
vt 0.702833 0.620838
vt 0.609657 0.620838
vt 0.729161 0.539491
vt 0.702833 0.709321
vt 0.729161 0.790668
vt 0.609657 0.709321
vt 0.583329 0.790668
vt 0.972620 0.539491
vt 0.972620 0.632135
vt 0.883629 0.632135
vt 0.883629 0.539491
vt 0.883629 0.817423
vt 0.883629 0.724779
vt 0.910108 0.724779
vt 0.910108 0.817423
vt 0.910108 0.632135
vt 0.910108 0.724779
vt 0.883629 0.724779
vt 0.883629 0.632135
vt 0.910108 0.809101
vt 0.910108 0.720618
vt 0.936588 0.720618
vt 0.936588 0.809101
vt 0.852983 0.572043
vt 0.883629 0.539491
vt 0.883629 0.693077
vt 0.852983 0.660526
vt 0.729161 0.693077
vt 0.759807 0.660526
vt 0.759807 0.572043
vt 0.729161 0.539491
vt 0.578664 0.800951
vt 0.578664 0.954536
vt 0.437497 0.954536
vt 0.437497 0.800951
vt 0.990251 0.000000
vt 0.990251 0.153585
vt 0.849084 0.153585
vt 0.849084 0.000000
vt 0.849084 0.460756
vt 0.849084 0.307171
vt 0.990250 0.307171
vt 0.990250 0.460756
vt 0.849084 0.307171
vt 0.849084 0.153585
vt 0.990250 0.153585
vt 0.990250 0.307170
vt 0.729161 0.846662
vt 0.729161 0.693077
vt 0.883629 0.693077
vt 0.883629 0.846662
vn -0.9792 -0.1889 -0.0741
vn -0.9792 -0.1889 0.0741
vn -0.6272 0.7138 0.3117
vn -0.6272 0.7138 -0.3117
vn 0.7244 0.0518 0.6874
vn 0.9792 -0.1889 0.0741
vn -0.7244 0.0518 0.6874
vn -0.7244 0.0518 -0.6874
vn -0.9958 -0.0916 0.0000
vn 0.7244 0.0518 -0.6874
vn 0.9792 -0.1889 -0.0741
vn 0.9958 -0.0916 0.0000
vn -0.5871 -0.6201 -0.5203
vn 0.5871 -0.6201 -0.5203
vn 0.5698 -0.5358 0.6230
vn -0.5698 -0.5358 0.6230
vn -0.5698 -0.5358 -0.6230
vn 0.5698 -0.5358 -0.6230
vn 0.5871 -0.6201 0.5203
vn -0.5871 -0.6201 0.5203
vn -0.3015 0.9045 -0.3015
vn -0.3015 0.9045 0.3015
vn -0.4082 -0.8165 0.4082
vn -0.4082 -0.8165 -0.4082
vn 0.6272 0.7138 -0.3117
vn 0.6272 0.7138 0.3117
vn 0.5460 -0.7800 -0.3059
vn -0.5460 -0.7800 -0.3059
vn -0.6334 0.2825 -0.7204
vn 0.6334 0.2825 -0.7204
vn -0.5460 -0.7800 0.3059
vn 0.5460 -0.7800 0.3059
vn 0.6334 0.2825 0.7204
vn -0.6334 0.2825 0.7204
vn 0.3015 0.9045 0.3015
vn 0.3015 0.9045 -0.3015
vn 0.4082 -0.8165 -0.4082
vn 0.4082 -0.8165 0.4082
vn 0.5773 -0.5773 -0.5773
vn 0.5773 -0.5773 0.5773
vn -0.5773 -0.5773 0.5773
vn -0.5773 -0.5773 -0.5773
vn 0.5773 0.5773 -0.5773
vn 0.5773 0.5773 0.5773
vn -0.5773 0.5773 0.5773
vn -0.5773 0.5773 -0.5773
usemtl Material
s 1
f 5/1/1 7/2/2 32/3/3 34/4/4
f 4/5/5 3/6/6 7/7/2 8/8/7
f 8/9/7 7/2/2 5/1/1 6/10/8 10/11/9
f 2/12/10 1/13/11 3/14/6 4/15/5 9/16/12
f 6/17/8 5/18/1 1/19/11 2/20/10
f 11/21/13 12/22/14 13/23/15 14/24/16
f 9/25/12 12/26/14 11/27/13 10/28/9
f 4/15/5 13/29/15 12/30/14 9/16/12
f 8/8/7 14/31/16 13/32/15 4/5/5
f 10/11/9 11/33/13 14/34/16 8/9/7
f 15/35/17 16/36/18 17/37/19 18/38/20
f 2/20/10 16/39/18 15/40/17 6/17/8
f 9/16/12 17/41/19 16/42/18 2/12/10
f 10/43/9 18/44/20 17/45/19 9/46/12
f 6/10/8 15/47/17 18/48/20 10/11/9
f 22/49/21 20/50/22 36/51/23 38/52/24
f 3/14/6 1/13/11 33/53/25 31/54/26
f 23/55/27 24/56/28 25/57/29 26/58/30
f 5/59/1 24/60/28 23/61/27 1/62/11
f 34/4/4 25/63/29 24/64/28 5/1/1
f 33/65/25 26/58/30 25/57/29 34/66/4
f 1/13/11 23/67/27 26/68/30 33/53/25
f 27/69/31 28/70/32 29/71/33 30/72/34
f 3/73/6 28/74/32 27/75/31 7/76/2
f 31/54/26 29/77/33 28/78/32 3/14/6
f 32/79/3 30/72/34 29/71/33 31/80/26
f 7/2/2 27/81/31 30/82/34 32/3/3
f 19/83/35 20/84/22 32/79/3 31/85/26
f 21/86/36 19/83/35 31/85/26 33/87/25
f 20/84/22 22/88/21 34/89/4 32/79/3
f 22/88/21 21/86/36 33/87/25 34/89/4
f 37/90/37 38/91/24 36/92/23 35/93/38
f 20/94/22 19/95/35 35/96/38 36/97/23
f 21/98/36 22/99/21 38/100/24 37/101/37
f 19/102/35 21/103/36 37/104/37 35/105/38
f 37/106/37 42/107/39 40/108/40 35/109/38
f 39/110/41 36/111/23 35/109/38 40/108/40
f 38/112/24 41/113/42 42/107/39 37/106/37
f 36/111/23 39/110/41 41/113/42 38/112/24
f 40/114/40 42/115/39 46/116/43 44/117/44
f 41/118/42 39/119/41 43/120/45 45/121/46
f 42/122/39 41/123/42 45/124/46 46/125/43
f 39/126/41 40/127/40 44/128/44 43/129/45
f 45/130/46 43/131/45 44/132/44 46/133/43
